<?xml version="1.0" encoding="UTF-8"?>
<svg version="1.1" xmlns="http://www.w3.org/2000/svg" width="365" height="310" viewBox="88 100 365 310">
<path d="M0 0 C1.02158203 0.00966797 2.04316406 0.01933594 3.09570312 0.02929688 C4.67834961 0.06700195 4.67834961 0.06700195 6.29296875 0.10546875 C7.90461914 0.12577148 7.90461914 0.12577148 9.54882812 0.14648438 C12.1932233 0.18174298 14.83658623 0.23102509 17.48046875 0.29296875 C17.48046875 3.26296875 17.48046875 6.23296875 17.48046875 9.29296875 C25.49743712 9.38912801 25.49743712 9.38912801 32.35546875 5.91796875 C33.40734375 4.61859375 33.40734375 4.61859375 34.48046875 3.29296875 C40.33704471 -0.92018028 46.96927266 -0.04001427 53.85546875 0.10546875 C55.67498047 0.12577148 55.67498047 0.12577148 57.53125 0.14648438 C60.51451443 0.18171978 63.49754934 0.23552308 66.48046875 0.29296875 C65.49046875 5.24296875 64.50046875 10.19296875 63.48046875 15.29296875 C65.46046875 15.29296875 67.44046875 15.29296875 69.48046875 15.29296875 C69.80917969 14.29716797 69.80917969 14.29716797 70.14453125 13.28125 C70.62019531 11.95673828 70.62019531 11.95673828 71.10546875 10.60546875 C71.55792969 9.30029297 71.55792969 9.30029297 72.01953125 7.96875 C73.99869319 4.34381436 75.67005451 1.92366486 79.48046875 0.29296875 C84.61938764 -0.31753938 89.6973667 -0.17806721 94.85546875 -0.01953125 C96.27339833 0.00557488 97.69137054 0.028384 99.109375 0.04882812 C102.56729863 0.10366051 106.02361063 0.18980264 109.48046875 0.29296875 C109.48046875 2.60296875 109.48046875 4.91296875 109.48046875 7.29296875 C111.54376715 7.23255006 113.60624289 7.14365237 115.66796875 7.04296875 C116.81652344 6.9965625 117.96507812 6.95015625 119.1484375 6.90234375 C123.0211485 6.19408711 124.58329453 4.88338334 127.48046875 2.29296875 C130.87278989 0.14526495 133.58412237 0.05869084 137.55859375 0.09765625 C139.29882812 0.10732422 139.29882812 0.10732422 141.07421875 0.1171875 C142.28078125 0.13394531 143.48734375 0.15070313 144.73046875 0.16796875 C146.56351562 0.18150391 146.56351562 0.18150391 148.43359375 0.1953125 C151.44930241 0.21887272 154.46491033 0.25474336 157.48046875 0.29296875 C156.82046875 3.92296875 156.16046875 7.55296875 155.48046875 11.29296875 C156.86234375 11.56109375 158.24421875 11.82921875 159.66796875 12.10546875 C163.45400844 12.97322667 166.46839282 13.72384517 169.48046875 16.29296875 C173.41772115 22.95309208 172.822448 29.67682965 172.66796875 37.23046875 C172.65443359 38.48666016 172.64089844 39.74285156 172.62695312 41.03710938 C172.59175466 44.12284154 172.5425118 47.20767899 172.48046875 50.29296875 C173.14046875 49.96296875 173.80046875 49.63296875 174.48046875 49.29296875 C176.3542648 49.22263106 178.23047977 49.20866655 180.10546875 49.23046875 C181.60980469 49.24400391 181.60980469 49.24400391 183.14453125 49.2578125 C184.30082031 49.27521484 184.30082031 49.27521484 185.48046875 49.29296875 C182.63347061 42.80856559 182.63347061 42.80856559 177.16796875 38.73046875 C176.28109375 38.58609375 175.39421875 38.44171875 174.48046875 38.29296875 C174.71510254 34.22598303 174.85932966 31.96734833 177.66796875 28.91796875 C180.6896537 27.17210634 183.02627758 26.61428886 186.48046875 26.29296875 C186.81046875 26.95296875 187.14046875 27.61296875 187.48046875 28.29296875 C188.80046875 28.29296875 190.12046875 28.29296875 191.48046875 28.29296875 C190.82046875 29.94296875 190.16046875 31.59296875 189.48046875 33.29296875 C190.80046875 32.96296875 192.12046875 32.63296875 193.48046875 32.29296875 C193.81046875 33.61296875 194.14046875 34.93296875 194.48046875 36.29296875 C193.82046875 36.29296875 193.16046875 36.29296875 192.48046875 36.29296875 C192.82980469 37.185 193.17914063 38.07703125 193.5390625 38.99609375 C193.99410156 40.1665625 194.44914062 41.33703125 194.91796875 42.54296875 C195.37042969 43.703125 195.82289063 44.86328125 196.2890625 46.05859375 C197.48046875 49.29296875 197.48046875 49.29296875 197.765625 51.58984375 C198.11947266 52.43289063 198.11947266 52.43289063 198.48046875 53.29296875 C200.45676138 54.0269387 202.46238208 54.68323877 204.48046875 55.29296875 C207.40234375 57.1328125 207.40234375 57.1328125 210.23046875 59.23046875 C211.64585937 60.26494141 211.64585937 60.26494141 213.08984375 61.3203125 C215.48046875 63.29296875 215.48046875 63.29296875 217.48046875 66.29296875 C217.60546875 68.98046875 217.60546875 68.98046875 217.48046875 71.29296875 C218.22296875 71.51984375 218.96546875 71.74671875 219.73046875 71.98046875 C223.14881393 73.61195168 224.38661785 75.13726678 226.48046875 78.29296875 C226.895528 80.12364071 227.30452235 81.95851374 227.59375 83.81323242 C229.22511672 94.08912292 234.09944482 98.7416159 242.00317383 105.02783203 C247.05406401 109.35335061 250.13445834 114.86560823 250.65234375 121.4921875 C250.23899145 129.95114703 245.22901454 135.85096892 239.35546875 141.54296875 C234.27613381 145.8501075 228.72131709 148.12491032 222.48046875 150.29296875 C221.30484375 150.72609375 220.12921875 151.15921875 218.91796875 151.60546875 C210.2286964 153.34332322 203.19678722 152.75946844 195.48046875 148.29296875 C192.91796875 146.54296875 192.91796875 146.54296875 191.48046875 145.29296875 C191.15046875 145.95296875 190.82046875 146.61296875 190.48046875 147.29296875 C187.51046875 147.29296875 184.54046875 147.29296875 181.48046875 147.29296875 C180.82046875 143.66296875 180.16046875 140.03296875 179.48046875 136.29296875 C177.32181526 136.29629967 177.32181526 136.29629967 175.11955261 136.29969788 C157.38728742 136.32614151 139.65502159 136.34316665 121.92274094 136.35405874 C119.67775212 136.35546263 117.4327634 136.35698079 115.18777466 136.35850906 C72.20857557 136.3866555 29.23866028 136.24415044 -13.73681355 135.60227203 C-17.3070186 135.54940933 -20.87726557 135.4997867 -24.4475193 135.45033646 C-26.8487038 135.41519067 -29.24972651 135.37393972 -31.65080261 135.3321228 C-33.06863028 135.31156841 -34.48646152 135.29125775 -35.90429688 135.27124023 C-37.11911743 135.25125473 -38.33393799 135.23126923 -39.58557129 135.2106781 C-42.58228811 135.15305126 -42.58228811 135.15305126 -45.51953125 136.29296875 C-47.97311135 136.49038324 -50.43382444 136.60512162 -52.89453125 136.66796875 C-54.20164063 136.71695313 -55.50875 136.7659375 -56.85546875 136.81640625 C-60.51953125 136.29296875 -60.51953125 136.29296875 -63.24609375 134.33203125 C-68.84615875 126.84603371 -70.67426257 118.43929957 -72.58203125 109.41796875 C-72.83807129 108.23138672 -73.09411133 107.04480469 -73.35791016 105.82226562 C-81.11030938 69.28581505 -81.11030938 69.28581505 -76.859375 62.734375 C-74.30356995 60.06763351 -71.8544777 58.42280485 -68.64453125 56.60546875 C-67.63648437 56.02410156 -66.6284375 55.44273437 -65.58984375 54.84375 C-59.50636206 51.77104996 -53.84076128 50.81943611 -47.14453125 50.16796875 C-46.31308594 50.08160156 -45.48164063 49.99523437 -44.625 49.90625 C-42.59045978 49.69578032 -40.55507155 49.49353561 -38.51953125 49.29296875 C-38.5505896 48.34200317 -38.5505896 48.34200317 -38.58227539 47.37182617 C-38.74949037 41.28454502 -38.19756943 35.47352254 -37.1015625 29.484375 C-36.4763413 26.35308721 -36.4763413 26.35308721 -36.28125 23.3828125 C-35.83617453 20.33022417 -35.48252124 18.69739668 -33.51953125 16.29296875 C-30.19055127 15.16600893 -27.02241989 14.45342747 -23.57446289 13.83984375 C-18.74042191 12.89244409 -16.33116821 11.89853437 -13.33203125 7.73046875 C-12.88472656 6.96605469 -12.43742187 6.20164063 -11.9765625 5.4140625 C-8.94012623 0.99372766 -5.17511476 -0.08673377 0 0 Z " fill="#5B39FE" transform="translate(183.51953125,203.70703125)"/>
<path d="M0 0 C1.20398438 0.01804688 2.40796875 0.03609375 3.6484375 0.0546875 C6.5993048 0.10152666 9.54975888 0.17325962 12.5 0.25 C11.51 5.2 10.52 10.15 9.5 15.25 C11.48 15.25 13.46 15.25 15.5 15.25 C15.82871094 14.25419922 15.82871094 14.25419922 16.1640625 13.23828125 C16.63972656 11.91376953 16.63972656 11.91376953 17.125 10.5625 C17.42664063 9.69238281 17.72828125 8.82226562 18.0390625 7.92578125 C20.01822444 4.30084561 21.68958576 1.88069611 25.5 0.25 C30.63891889 -0.36050813 35.71689795 -0.22103596 40.875 -0.0625 C42.29292958 -0.03739387 43.71090179 -0.01458475 45.12890625 0.00585938 C48.58682988 0.06069176 52.04314188 0.14683389 55.5 0.25 C55.5 2.56 55.5 4.87 55.5 7.25 C57.5632984 7.18958131 59.62577414 7.10068362 61.6875 7 C62.83605469 6.95359375 63.98460937 6.9071875 65.16796875 6.859375 C69.04067975 6.15111836 70.60282578 4.84041459 73.5 2.25 C76.89232114 0.1022962 79.60365362 0.01572209 83.578125 0.0546875 C85.31835938 0.06435547 85.31835938 0.06435547 87.09375 0.07421875 C88.3003125 0.09097656 89.506875 0.10773438 90.75 0.125 C92.58304688 0.13853516 92.58304688 0.13853516 94.453125 0.15234375 C97.46883366 0.17590397 100.48444158 0.21177461 103.5 0.25 C102.84 3.88 102.18 7.51 101.5 11.25 C102.881875 11.518125 104.26375 11.78625 105.6875 12.0625 C109.47353969 12.93025792 112.48792407 13.68087642 115.5 16.25 C119.4372524 22.91012333 118.84197925 29.6338609 118.6875 37.1875 C118.67396484 38.44369141 118.66042969 39.69988281 118.64648438 40.99414062 C118.61128591 44.07987279 118.56204305 47.16471024 118.5 50.25 C119.16 50.58 119.82 50.91 120.5 51.25 C120.17 51.58 119.84 51.91 119.5 52.25 C119.42427302 54.48318855 119.416954 56.71874734 119.4375 58.953125 C119.44128662 59.62792908 119.44507324 60.30273315 119.44897461 60.99798584 C119.46534771 63.89310039 119.49331227 66.78807547 119.52050781 69.68310547 C119.53866757 71.79393859 119.55072174 73.90474812 119.5625 76.015625 C119.57410156 77.28180664 119.58570313 78.54798828 119.59765625 79.85253906 C119.51245369 82.81673602 119.12231976 85.36750286 118.5 88.25 C117.77541595 88.10911453 117.05083191 87.96822906 116.30429077 87.82307434 C108.90230537 86.47398041 101.80377133 85.94269738 94.2890625 85.94921875 C93.15963226 85.94493362 92.03020203 85.9406485 90.86654663 85.93623352 C88.48834905 85.93052749 86.11013402 85.9299622 83.73193359 85.93432617 C80.16862668 85.93746161 76.60617199 85.91406346 73.04296875 85.88867188 C55.08574199 85.83939902 36.68186451 86.46462574 19.5 92.25 C18.51 92.58 17.52 92.91 16.5 93.25 C14.24136197 77.11515489 13.20443835 61.27532772 13.25 45 C13.25104736 44.17489929 13.25209473 43.34979858 13.25317383 42.49969482 C13.25957441 40.11944863 13.27554137 37.73953091 13.296875 35.359375 C13.30124573 34.65823578 13.30561646 33.95709656 13.31011963 33.23471069 C13.37712851 28.49692643 13.84654692 23.93417165 14.5 19.25 C13.84 19.25 13.18 19.25 12.5 19.25 C11.83809788 36.58972312 11.33762991 53.89444099 11.5 71.25 C8.06294295 71.39505175 4.62666967 71.48398014 1.1875 71.5625 C0.21103516 71.60439453 -0.76542969 71.64628906 -1.77148438 71.68945312 C-4.43317976 71.73518672 -6.87924408 71.72132571 -9.5 71.25 C-12.2437109 68.30528464 -12.45458966 66.54769 -13.0625 62.5625 C-12.72224134 54.34989315 -6.29472172 47.82890309 -1.046875 42.05859375 C2.48656804 37.9273207 3.65213896 34.57486366 3.5 29.25 C3.07589844 29.89066406 2.65179688 30.53132813 2.21484375 31.19140625 C-3.56762738 39.71896258 -9.11836368 47.4218385 -19.5 50.25 C-21.49911271 50.30956832 -23.50128527 50.32168991 -25.5 50.25 C-23.84886481 57.64258257 -21.87964731 64.45639425 -18.5 71.25 C-20.81 71.25 -23.12 71.25 -25.5 71.25 C-31.79847125 54.07235114 -34.35780503 30.69211543 -27.5 13.25 C-24.75148576 7.47897632 -21.83682196 3.76093139 -16.01245117 1.01977539 C-10.80469811 -0.57579797 -5.39112473 -0.15403214 0 0 Z " fill="#5D3AFC" transform="translate(237.5,203.75)"/>
<path d="M0 0 C1.02158203 0.00966797 2.04316406 0.01933594 3.09570312 0.02929688 C4.67834961 0.06700195 4.67834961 0.06700195 6.29296875 0.10546875 C7.90461914 0.12577148 7.90461914 0.12577148 9.54882812 0.14648438 C12.1932233 0.18174298 14.83658623 0.23102509 17.48046875 0.29296875 C17.48046875 3.26296875 17.48046875 6.23296875 17.48046875 9.29296875 C21.11046875 9.29296875 24.74046875 9.29296875 28.48046875 9.29296875 C27.94471276 11.4359927 27.39093144 13.57689016 26.7265625 15.68359375 C22.09910572 32.04735394 23.55924142 49.93759052 27.48046875 66.29296875 C27.82064033 67.95825317 28.15680971 69.62439639 28.48046875 71.29296875 C30.46046875 70.96296875 32.44046875 70.63296875 34.48046875 70.29296875 C34.13113281 69.60332031 33.78179687 68.91367187 33.421875 68.203125 C30.45291895 62.07176816 28.81531097 57.10142727 28.48046875 50.29296875 C29.03734375 50.20660156 29.59421875 50.12023437 30.16796875 50.03125 C41.45468284 47.9531219 48.29544663 41.61475791 54.8359375 32.37890625 C55.72619547 31.02262877 56.60493671 29.65879872 57.48046875 28.29296875 C57.81046875 28.29296875 58.14046875 28.29296875 58.48046875 28.29296875 C59.50416926 34.77640532 56.07424278 39.2240211 52.48046875 44.29296875 C50.70946776 46.40770833 48.87687701 48.45014988 47.02734375 50.49609375 C43.82238566 54.21902487 42.32964181 57.54981314 42.16796875 62.41796875 C42.25062045 66.45638647 42.25062045 66.45638647 44.48046875 70.29296875 C51.41046875 70.62296875 58.34046875 70.95296875 65.48046875 71.29296875 C65.15046875 69.97296875 64.82046875 68.65296875 64.48046875 67.29296875 C64.35359436 64.82039344 64.29071598 62.39094421 64.29296875 59.91796875 C64.29232422 59.16789551 64.29167969 58.41782227 64.29101562 57.64501953 C64.40131435 44.84786043 65.53159336 32.04979076 66.48046875 19.29296875 C67.14046875 19.29296875 67.80046875 19.29296875 68.48046875 19.29296875 C68.4647583 21.23393433 68.4647583 21.23393433 68.44873047 23.21411133 C68.41196296 28.11024095 68.3893664 33.00635897 68.37060547 37.90258789 C68.36067499 40.00384588 68.34712611 42.10509055 68.32958984 44.20629883 C68.23745321 55.54723405 68.32850429 66.71369311 69.77536011 77.977005 C70.43225267 83.12376895 70.56164517 88.10183273 70.48046875 93.29296875 C65.70258096 92.57516401 61.08958702 91.49685917 56.41796875 90.29296875 C50.1231765 88.67981865 44.24529092 87.1766305 37.71899414 87.13183594 C36.58333511 87.12222839 35.44767609 87.11262085 34.27760315 87.10272217 C33.05677536 87.09847229 31.83594757 87.09422241 30.578125 87.08984375 C28.67419228 87.08129364 28.67419228 87.08129364 26.73179626 87.0725708 C24.04275945 87.06312701 21.35383401 87.05622788 18.66479492 87.05273438 C15.25941217 87.0472906 11.85443756 87.02334264 8.44918156 86.99476242 C5.15886154 86.97136088 1.86851646 86.96966687 -1.421875 86.96484375 C-2.62448471 86.95249695 -3.82709442 86.94015015 -5.06614685 86.9274292 C-15.76489974 86.95501273 -26.72167433 88.15273576 -36.20703125 93.41796875 C-39.0124701 94.94406674 -41.48672631 96.28203377 -44.51953125 97.29296875 C-44.62910156 96.09542969 -44.73867187 94.89789063 -44.8515625 93.6640625 C-45.83818189 83.37457709 -47.25713379 73.38326142 -49.51953125 63.29296875 C-57.99424607 62.02073553 -64.52600291 61.48912668 -72.57421875 64.734375 C-74.51953125 65.29296875 -74.51953125 65.29296875 -77.51953125 64.29296875 C-69.3666362 55.05302103 -59.11292402 51.33235784 -47.14453125 50.16796875 C-46.31308594 50.08160156 -45.48164063 49.99523437 -44.625 49.90625 C-42.59045978 49.69578032 -40.55507155 49.49353561 -38.51953125 49.29296875 C-38.5505896 48.34200317 -38.5505896 48.34200317 -38.58227539 47.37182617 C-38.74949037 41.28454502 -38.19756943 35.47352254 -37.1015625 29.484375 C-36.4763413 26.35308721 -36.4763413 26.35308721 -36.28125 23.3828125 C-35.83617453 20.33022417 -35.48252124 18.69739668 -33.51953125 16.29296875 C-30.19055127 15.16600893 -27.02241989 14.45342747 -23.57446289 13.83984375 C-18.74042191 12.89244409 -16.33116821 11.89853437 -13.33203125 7.73046875 C-12.88472656 6.96605469 -12.43742187 6.20164063 -11.9765625 5.4140625 C-8.94012623 0.99372766 -5.17511476 -0.08673377 0 0 Z " fill="#5B39FC" transform="translate(183.51953125,203.70703125)"/>
<path d="M0 0 C0.33 0.66 0.66 1.32 1 2 C2.32 2 3.64 2 5 2 C4.34 3.65 3.68 5.3 3 7 C4.32 6.67 5.64 6.34 7 6 C7.33 7.32 7.66 8.64 8 10 C7.34 10 6.68 10 6 10 C6.34933594 10.89203125 6.69867188 11.7840625 7.05859375 12.703125 C7.74115234 14.45882812 7.74115234 14.45882812 8.4375 16.25 C9.11619141 17.99023438 9.11619141 17.99023438 9.80859375 19.765625 C11 23 11 23 11.28515625 25.296875 C11.52105469 25.85890625 11.75695312 26.4209375 12 27 C13.97629263 27.73396995 15.98191333 28.39027002 18 29 C20.921875 30.83984375 20.921875 30.83984375 23.75 32.9375 C24.69359375 33.62714844 25.6371875 34.31679688 26.609375 35.02734375 C29 37 29 37 31 40 C31.125 42.6875 31.125 42.6875 31 45 C31.7425 45.226875 32.485 45.45375 33.25 45.6875 C36.66834518 47.31898293 37.9061491 48.84429803 40 52 C40.41505925 53.83067196 40.8240536 55.66554499 41.11328125 57.52026367 C42.74464797 67.79615417 47.61897607 72.44864715 55.52270508 78.73486328 C60.57359526 83.06038186 63.65398959 88.57263948 64.171875 95.19921875 C63.7585227 103.65817828 58.74854579 109.55800017 52.875 115.25 C47.79566506 119.55713875 42.24084834 121.83194157 36 124 C34.824375 124.433125 33.64875 124.86625 32.4375 125.3125 C23.74822765 127.05035447 16.71631847 126.46649969 9 122 C6.4375 120.25 6.4375 120.25 5 119 C4.67 119.66 4.34 120.32 4 121 C1.03 121 -1.94 121 -5 121 C-5.66 117.37 -6.32 113.74 -7 110 C-4.69 110.33 -2.38 110.66 0 111 C-0.495 109.7625 -0.495 109.7625 -1 108.5 C-2.74247225 102.40134711 -2.39227851 97.84666991 -0.4375 91.9375 C0.96835736 87.5104011 1.43337648 84.55307822 0 80 C-0.98607221 78.68160511 -2.01048849 77.39140248 -3.0625 76.125 C-5.94904181 72.49760243 -6.93040094 69.94051243 -6.578125 65.296875 C-4.5593977 57.27652598 1.39755058 52.39329409 8 48 C5.92788749 40.38540769 3.15430087 33.22705994 0 26 C-0.43828125 24.96488281 -0.8765625 23.92976563 -1.328125 22.86328125 C-1.75609375 21.87714844 -2.1840625 20.89101562 -2.625 19.875 C-3.00914062 18.98554688 -3.39328125 18.09609375 -3.7890625 17.1796875 C-4.9460526 14.70521851 -4.9460526 14.70521851 -8 13 C-10.11280345 12.36707617 -10.11280345 12.36707617 -12 12 C-11.63166144 5.61546499 -11.63166144 5.61546499 -8.5625 2.625 C-5.03885681 0.39049456 -4.35541256 0 0 0 Z " fill="#70301C" transform="translate(370,230)"/>
<path d="M0 0 C2.95064148 -0.2208564 5.68368231 -0.28060989 8.625 -0.1875 C9.42679688 -0.17396484 10.22859375 -0.16042969 11.0546875 -0.14648438 C13.03674378 -0.11109051 15.01845551 -0.05728234 17 0 C16.96777344 0.62003906 16.93554688 1.24007812 16.90234375 1.87890625 C17.02784531 11.45885839 21.59527375 18.40363246 27 26 C27.66 26.33 28.32 26.66 29 27 C29.25523437 25.71222656 29.51046875 24.42445313 29.7734375 23.09765625 C30.90757501 17.99403746 32.6672026 13.2738501 34.625 8.4375 C35.73875 5.653125 36.8525 2.86875 38 0 C44.93 0 51.86 0 59 0 C58.67 2.64 58.34 5.28 58 8 C57.91842388 9.85442066 57.87227498 11.71092536 57.87060547 13.56713867 C57.86587723 15.09494209 57.86587723 15.09494209 57.86105347 16.65361023 C57.8630777 17.73084854 57.86510193 18.80808685 57.8671875 19.91796875 C57.86623077 21.05220779 57.86527405 22.18644684 57.86428833 23.35505676 C57.86361013 25.74785416 57.86543922 28.14065344 57.86962891 30.53344727 C57.87495724 34.15840897 57.86968446 37.78324537 57.86328125 41.40820312 C57.86394258 43.74479194 57.86522487 46.08138067 57.8671875 48.41796875 C57.86516327 49.48508591 57.86313904 50.55220306 57.86105347 51.6516571 C57.88389388 59.14612285 58.35737775 66.53262732 59 74 C50.75 74 42.5 74 34 74 C34.495 70.205 34.99 66.41 35.5 62.5 C37.40566908 46.65322337 37.30233006 30.93356926 37 15 C36.15450362 17.20432985 35.32357186 19.41248533 34.5 21.625 C34.0359375 22.85476562 33.571875 24.08453125 33.09375 25.3515625 C31.86489747 29.45066343 31.02751006 33.05502012 33 37 C33.4914074 42.83244197 33.83075678 48.17872553 31.375 53.5625 C27.53904974 57.49939632 24.8510161 59.84574866 19.25 60.3125 C16 60 16 60 14 59 C14.15791016 58.42693115 14.31582031 57.8538623 14.47851562 57.26342773 C16.27785238 49.45366601 14.66024335 44.10263462 10.5 37.4375 C9.85611328 36.3537207 9.85611328 36.3537207 9.19921875 35.24804688 C8.15028345 33.48816654 7.07756792 31.74249575 6 30 C5.25382586 44.42603339 7.51237715 56.93130625 14.046875 69.9609375 C15 72 15 72 15 74 C9.39 74 3.78 74 -2 74 C-1.67547852 72.402771 -1.35095703 70.80554199 -1.01660156 69.15991211 C0.00225178 63.53560576 0.29148226 58.14573013 0.265625 52.44140625 C0.26753845 51.48983139 0.2694519 50.53825653 0.27142334 49.55784607 C0.27277219 47.56891613 0.26916772 45.579977 0.26074219 43.59106445 C0.24993983 40.54553714 0.26072444 37.50058845 0.2734375 34.45507812 C0.2721173 32.51301954 0.26955781 30.57096131 0.265625 28.62890625 C0.26967346 27.7216127 0.27372192 26.81431915 0.27789307 25.87953186 C0.27158875 25.03442551 0.26528442 24.18931915 0.25878906 23.31860352 C0.25719788 22.57900894 0.25560669 21.83941437 0.25396729 21.07740784 C-0.03729542 18.69493002 -0.89424648 17.11326693 -2 15 C-2.265625 12.08984375 -2.265625 12.08984375 -2.25 8.9375 C-2.25515625 7.89464844 -2.2603125 6.85179688 -2.265625 5.77734375 C-2 3 -2 3 0 0 Z " fill="#E15E34" transform="translate(246,116)"/>
<path d="M0 0 C1.20398438 0.02255859 2.40796875 0.04511719 3.6484375 0.06835938 C6.60026661 0.12692741 9.54946573 0.20889978 12.5 0.3125 C12.33773926 1.20654541 12.17547852 2.10059082 12.00830078 3.02172852 C11.21093097 8.64402086 11.35733018 14.29798694 11.3671875 19.96484375 C11.36623077 21.17894424 11.36527405 22.39304474 11.36428833 23.64393616 C11.36360951 26.20492607 11.36544297 28.76591772 11.36962891 31.3269043 C11.37497666 35.23294976 11.36967613 39.13887999 11.36328125 43.04492188 C11.36394218 45.53906275 11.36522363 48.03320356 11.3671875 50.52734375 C11.36516327 51.68902573 11.36313904 52.8507077 11.36105347 54.04759216 C11.37785124 59.8986103 11.61129925 65.5271199 12.5 71.3125 C8.87515001 71.39931476 5.25056557 71.45282721 1.625 71.5 C0.59246094 71.52513672 -0.44007813 71.55027344 -1.50390625 71.57617188 C-2.98310547 71.59067383 -2.98310547 71.59067383 -4.4921875 71.60546875 C-5.40339355 71.6211792 -6.31459961 71.63688965 -7.25341797 71.65307617 C-7.99479004 71.54068604 -8.73616211 71.4282959 -9.5 71.3125 C-12.5303465 66.76698024 -12.39326197 62.63115905 -11.5 57.3125 C-8.955661 51.827873 -5.41449735 47.21873756 -1.3125 42.8125 C2.45862171 38.67740944 3.88125938 33.57816802 5.5 28.3125 C3.11581214 30.52189403 1.50156372 32.7941778 -0.1875 35.5625 C-4.77528861 42.53503022 -10.45053137 47.82448242 -18.5 50.3125 C-22.4375 50.5 -22.4375 50.5 -25.5 50.3125 C-24.90266451 52.35617572 -24.29680343 54.39736043 -23.6875 56.4375 C-23.35105469 57.57445312 -23.01460938 58.71140625 -22.66796875 59.8828125 C-21.53473515 63.2105018 -20.08360011 66.18160007 -18.5 69.3125 C-18.5 69.9725 -18.5 70.6325 -18.5 71.3125 C-20.81 71.3125 -23.12 71.3125 -25.5 71.3125 C-28.71951314 61.23700575 -30.12320766 52.18041603 -29.96655273 41.63110352 C-29.9372698 39.48311429 -29.94607184 37.33756251 -29.95898438 35.18945312 C-29.94255532 24.3539868 -28.76532483 13.88493515 -21.5 5.3125 C-15.11433849 -0.63162655 -8.31463063 -0.29695109 0 0 Z " fill="#DD5C37" transform="translate(328.5,203.6875)"/>
<path d="M0 0 C1.20398438 0.01804688 2.40796875 0.03609375 3.6484375 0.0546875 C6.59979605 0.10153446 9.54947036 0.16711995 12.5 0.25 C12.3582988 0.84403122 12.2165976 1.43806244 12.07060242 2.0500946 C10.63417588 8.53543175 10.21979321 14.64140559 10.26953125 21.26953125 C10.26998947 22.28996017 10.27044769 23.3103891 10.2709198 24.36174011 C10.27392208 26.5072039 10.28174703 28.6526659 10.29418945 30.7980957 C10.31239181 34.04321215 10.31469899 37.28804099 10.31445312 40.53320312 C10.33251503 50.81279324 10.41099613 61.01787502 11.5 71.25 C8.06294295 71.39505175 4.62666967 71.48398014 1.1875 71.5625 C0.21103516 71.60439453 -0.76542969 71.64628906 -1.77148438 71.68945312 C-4.43317976 71.73518672 -6.87924408 71.72132571 -9.5 71.25 C-12.2437109 68.30528464 -12.45458966 66.54769 -13.0625 62.5625 C-12.72224134 54.34989315 -6.29472172 47.82890309 -1.046875 42.05859375 C2.48656804 37.9273207 3.65213896 34.57486366 3.5 29.25 C3.07589844 29.89066406 2.65179688 30.53132813 2.21484375 31.19140625 C-3.56762738 39.71896258 -9.11836368 47.4218385 -19.5 50.25 C-21.49911271 50.30956832 -23.50128527 50.32168991 -25.5 50.25 C-23.84886481 57.64258257 -21.87964731 64.45639425 -18.5 71.25 C-20.81 71.25 -23.12 71.25 -25.5 71.25 C-31.79847125 54.07235114 -34.35780503 30.69211543 -27.5 13.25 C-24.75148576 7.47897632 -21.83682196 3.76093139 -16.01245117 1.01977539 C-10.80469811 -0.57579797 -5.39112473 -0.15403214 0 0 Z " fill="#DE5C36" transform="translate(237.5,203.75)"/>
<path d="M0 0 C14.19 0 28.38 0 43 0 C43 9.57 43 19.14 43 29 C39.26924499 30.243585 35.86950302 30.64742657 32 30 C29.00000994 28.00000663 27.38673719 26.60083837 26.5234375 23.02734375 C26.375 20.9375 26.375 20.9375 27 17 C30.08803135 13.63949529 33.88975877 11.91174011 38 10 C38 8.68 38 7.36 38 6 C32.39173989 5.44329771 27.47952019 5.06245789 22.6875 8.375 C16.84035864 13.44172208 12.95695078 20.56358704 11 28 C11.66 27.67 12.32 27.34 13 27 C17.62062705 26.57473875 21.71290557 26.43689619 26 28.3125 C29.19528007 31.00851756 29.96332197 32.6271067 30.375 36.8125 C30.27933507 41.13336588 28.7690803 43.66081493 26 47 C23.67313547 48.16343227 22.15278587 48.19895988 19.5625 48.25 C18.78003906 48.27578125 17.99757812 48.3015625 17.19140625 48.328125 C14.49198652 47.92393381 13.62540456 47.15326907 12 45 C12 44.34 12 43.68 12 43 C13.32 42.34 14.64 41.68 16 41 C16 39.02 16 37.04 16 35 C13.62694422 34.58219121 13.62694422 34.58219121 11 35 C8.17427772 38.69517529 7.56448986 41.7262846 7.3125 46.3125 C7.24675781 47.38113281 7.18101562 48.44976562 7.11328125 49.55078125 C7.07589844 50.35902344 7.03851563 51.16726562 7 52 C25.5572785 51.75555235 25.5572785 51.75555235 42 44 C42.66 44 43.32 44 44 44 C44 53.9 44 63.8 44 74 C29.48 74 14.96 74 0 74 C0.99 68.555 0.99 68.555 2 63 C2.28769911 59.83203847 2.28769911 59.83203847 2.25878906 57.04467773 C2.26509338 56.01668564 2.27139771 54.98869354 2.27789307 53.92955017 C2.2738446 52.85838455 2.26979614 51.78721893 2.265625 50.68359375 C2.26753845 49.54648453 2.2694519 48.40937531 2.27142334 47.23780823 C2.27277556 44.8503497 2.26914697 42.46288357 2.26074219 40.07543945 C2.2500192 36.44400366 2.26067587 32.81306137 2.2734375 29.18164062 C2.27211593 26.84895725 2.26955359 24.51627419 2.265625 22.18359375 C2.26967346 21.1104039 2.27372192 20.03721405 2.27789307 18.9315033 C2.27158875 17.90666336 2.26528442 16.88182343 2.25878906 15.82592773 C2.25719788 14.9397728 2.25560669 14.05361786 2.25396729 13.14060974 C1.89575596 8.7108975 0.87157386 4.35786931 0 0 Z " fill="#E15F35" transform="translate(196,116)"/>
<path d="M0 0 C1.41792958 0.02510613 2.83590179 0.04791525 4.25390625 0.06835938 C7.71285286 0.11892877 11.16583871 0.21676675 14.625 0.3125 C14.295 6.9125 13.965 13.5125 13.625 20.3125 C8.91491039 22.6675448 5.79042827 23.11674806 0.625 22.3125 C-4.96532417 20.13796656 -9.4681726 16.66768279 -13.76953125 12.546875 C-15.60847123 11.13299414 -17.11176663 10.7248896 -19.375 10.3125 C-18.39407785 15.76748179 -18.39407785 15.76748179 -14.46875 19.53515625 C-13.28236486 20.17045817 -12.08356345 20.78297583 -10.875 21.375 C-9.60388127 22.05154739 -8.33304959 22.72863437 -7.0625 23.40625 C-6.43601562 23.72980469 -5.80953125 24.05335938 -5.1640625 24.38671875 C3.67599178 28.96115732 11.88203443 33.73933888 15.15234375 43.74609375 C16.5276788 51.21382207 17.11399826 60.28261783 13.75 67.25 C11.625 70.3125 11.625 70.3125 9.625 71.3125 C6.99872867 71.39917255 4.39937517 71.42810135 1.7734375 71.41015625 C0.99940582 71.4087413 0.22537415 71.40732635 -0.57211304 71.40586853 C-3.04811442 71.40026403 -5.52402588 71.38771083 -8 71.375 C-9.67708203 71.36998558 -11.35416547 71.36542257 -13.03125 71.36132812 C-17.14586806 71.35029315 -21.26041878 71.33302554 -25.375 71.3125 C-25.40387814 67.83335059 -25.42175687 64.35423169 -25.4375 60.875 C-25.44587891 59.88177734 -25.45425781 58.88855469 -25.46289062 57.86523438 C-25.46611328 56.92099609 -25.46933594 55.97675781 -25.47265625 55.00390625 C-25.47789307 54.12935791 -25.48312988 53.25480957 -25.48852539 52.35375977 C-25.375 50.3125 -25.375 50.3125 -24.375 49.3125 C-14.12988392 49.20257386 -7.61233054 54.74571219 0.26953125 60.60546875 C3.98012928 63.29457545 6.06469332 63.4116371 10.625 63.3125 C10.48223401 60.8991318 10.48223401 60.8991318 9.625 58.3125 C7.61114862 56.65947314 7.61114862 56.65947314 4.99609375 55.48046875 C4.04283203 54.99126953 3.08957031 54.50207031 2.10742188 53.99804688 C1.10259766 53.50369141 0.09777344 53.00933594 -0.9375 52.5 C-11.18321669 47.44130402 -19.38636223 41.88841207 -24.375 31.3125 C-26.38651884 23.02178046 -25.93644868 15.52509108 -22.8359375 7.6015625 C-17.08108599 -1.41539736 -9.72970303 -0.29904562 0 0 Z " fill="#DF5D35" transform="translate(278.375,203.6875)"/>
<path d="M0 0 C1.02158203 0.00966797 2.04316406 0.01933594 3.09570312 0.02929688 C4.67834961 0.06700195 4.67834961 0.06700195 6.29296875 0.10546875 C7.90461914 0.12577148 7.90461914 0.12577148 9.54882812 0.14648438 C12.1932233 0.18174298 14.83658623 0.23102509 17.48046875 0.29296875 C17.56734371 3.41779437 17.62081443 6.54231121 17.66796875 9.66796875 C17.69310547 10.55742187 17.71824219 11.446875 17.74414062 12.36328125 C17.75380859 13.2140625 17.76347656 14.06484375 17.7734375 14.94140625 C17.78914795 15.72692871 17.8048584 16.51245117 17.82104492 17.32177734 C17.65245972 18.29751709 17.65245972 18.29751709 17.48046875 19.29296875 C14.48046875 21.29296875 14.48046875 21.29296875 11.23046875 21.41796875 C5.91261106 19.82261144 3.81468647 16.53501803 0.48046875 12.29296875 C-1.67393378 9.8450358 -2.1225687 9.36053684 -5.45703125 8.79296875 C-8.64035954 9.02547102 -8.64035954 9.02547102 -10.76953125 11.35546875 C-15.03358573 18.51298878 -15.77024498 26.74185576 -13.94921875 34.82421875 C-12.33884435 39.90961159 -10.54011935 44.46181078 -6.51953125 48.10546875 C-1.84845117 49.95443795 2.53234252 50.06006653 7.48046875 49.29296875 C10.44751324 47.95779873 12.90489957 46.26176223 15.48046875 44.29296875 C16.14046875 43.96296875 16.80046875 43.63296875 17.48046875 43.29296875 C17.6257498 47.04256092 17.71453156 50.7914298 17.79296875 54.54296875 C17.83486328 55.60644531 17.87675781 56.66992188 17.91992188 57.765625 C18.04399116 65.6564318 18.04399116 65.6564318 15.12890625 68.94921875 C8.99256683 72.0626417 3.34014255 73.33038855 -3.51953125 72.29296875 C-8.69130077 70.14987248 -12.38829983 66.93183011 -15.51953125 62.29296875 C-16.29296875 61.24109375 -16.29296875 61.24109375 -17.08203125 60.16796875 C-23.26735562 47.79732001 -23.90053308 30.70479816 -19.95703125 17.48046875 C-16.32919057 8.57810792 -10.42520899 -0.17472417 0 0 Z " fill="#DF5D36" transform="translate(183.51953125,203.70703125)"/>
<path d="M0 0 C0.33 0.66 0.66 1.32 1 2 C2.32 2 3.64 2 5 2 C4.34 3.65 3.68 5.3 3 7 C4.32 6.67 5.64 6.34 7 6 C7.33 7.32 7.66 8.64 8 10 C7.34 10 6.68 10 6 10 C9.91129527 20.91045523 14.79245005 31.25529039 19.8125 41.6875 C20.99410173 44.14622288 22.17419759 46.60561209 23.34953308 49.06733704 C24.07471459 50.58605082 24.80351346 52.10304388 25.53633118 53.61808777 C28 58.77496786 28 58.77496786 28 61 C28.8353125 61.1546875 28.8353125 61.1546875 29.6875 61.3125 C32.44176578 62.13133577 34.58727657 63.45853781 37 65 C36.67 65.66 36.34 66.32 36 67 C35.34 67 34.68 67 34 67 C36.8684413 69.10232344 36.8684413 69.10232344 40 70 C40.08159574 74.16138263 39.98248524 77.9472484 39 82 C38.34 82 37.68 82 37 82 C37.30035156 82.55429687 37.60070312 83.10859375 37.91015625 83.6796875 C38.29042969 84.40414062 38.67070312 85.12859375 39.0625 85.875 C39.44535156 86.59429687 39.82820313 87.31359375 40.22265625 88.0546875 C40.47917969 88.69664062 40.73570312 89.33859375 41 90 C40.67 90.66 40.34 91.32 40 92 C39.49339844 91.04287109 39.49339844 91.04287109 38.9765625 90.06640625 C38.53054688 89.24011719 38.08453125 88.41382813 37.625 87.5625 C37.18414062 86.73878906 36.74328125 85.91507812 36.2890625 85.06640625 C35.16581441 82.86533422 35.16581441 82.86533422 33 82 C34.98 85.63 36.96 89.26 39 93 C41.97 92.505 41.97 92.505 45 92 C45.66 93.65 46.32 95.3 47 97 C46.38125 96.505 45.7625 96.01 45.125 95.5 C43.16119096 93.80777227 43.16119096 93.80777227 41 94 C41 94.66 41 95.32 41 96 C41.66 96 42.32 96 43 96 C43 96.66 43 97.32 43 98 C43.99 98.33 44.98 98.66 46 99 C44.11351956 100.03801555 42.21536344 101.05483167 40.3125 102.0625 C39.25675781 102.63097656 38.20101562 103.19945312 37.11328125 103.78515625 C33.77612779 105.08735791 32.34964944 105.08754852 29 104 C28.67 102.35 28.34 100.7 28 99 C30.64 97.68 33.28 96.36 36 95 C34.31751456 89.05402658 34.31751456 89.05402658 31 84 C28.6552173 83.73265094 26.50575597 83.81199156 24.15625 84.01953125 C22 84 22 84 19 82 C18.67 82.66 18.34 83.32 18 84 C18.99 84 19.98 84 21 84 C21 84.66 21 85.32 21 86 C21.99 86.33 22.98 86.66 24 87 C22.68 87 21.36 87 20 87 C20 86.34 20 85.68 20 85 C19.21625 84.896875 18.4325 84.79375 17.625 84.6875 C15 84 15 84 13 81 C12.46083854 78.3397977 12.26629902 75.70737337 12 73 C12.99 73 13.98 73 15 73 C15 75.31 15 77.62 15 80 C15.66 80 16.32 80 17 80 C17.495 78.515 17.495 78.515 18 77 C19.65 78.65 21.3 80.3 23 82 C23.495 80.02 23.495 80.02 24 78 C24.66 79.32 25.32 80.64 26 82 C26.66 81.34 27.32 80.68 28 80 C28 80.66 28 81.32 28 82 C28.66 81.67 29.32 81.34 30 81 C29.69964844 80.45730469 29.39929688 79.91460937 29.08984375 79.35546875 C28.70957031 78.64003906 28.32929688 77.92460937 27.9375 77.1875 C27.55464844 76.47980469 27.17179687 75.77210938 26.77734375 75.04296875 C26 73 26 73 27 70 C28.65 73.3 30.3 76.6 32 80 C32 76.55860951 31.16303398 74.92439685 29.625 71.875 C29.18414062 70.98554688 28.74328125 70.09609375 28.2890625 69.1796875 C27.18778977 66.86796941 27.18778977 66.86796941 25 66 C24.67 66.66 24.34 67.32 24 68 C22.68 68 21.36 68 20 68 C20 68.99 20 69.98 20 71 C19.34 71 18.68 71 18 71 C18 71.66 18 72.32 18 73 C16 72 16 72 14 70 C14.495 68.515 14.495 68.515 15 67 C16.485 66.505 16.485 66.505 18 66 C17.36940674 65.26837646 17.36940674 65.26837646 16.72607422 64.52197266 C14.38611064 61.10304426 12.94735466 57.47224239 11.3828125 53.6484375 C11.04377899 52.83436432 10.70474548 52.02029114 10.35543823 51.18154907 C9.27326005 48.58155499 8.19853431 45.97857378 7.125 43.375 C1.51498303 25.60272465 1.51498303 25.60272465 -9.3125 12.375 C-10.199375 12.25125 -11.08625 12.1275 -12 12 C-11.63166144 5.61546499 -11.63166144 5.61546499 -8.5625 2.625 C-5.03885681 0.39049456 -4.35541256 0 0 0 Z " fill="#C6572F" transform="translate(370,230)"/>
<path d="M0 0 C2.6015625 -0.29296875 2.6015625 -0.29296875 5.625 -0.1875 C6.62789062 -0.16042969 7.63078125 -0.13335937 8.6640625 -0.10546875 C9.43492187 -0.07066406 10.20578125 -0.03585938 11 0 C13.92239032 5.50901665 16.56495872 11.10659605 18.9375 16.875 C19.37964844 17.94492187 19.82179688 19.01484375 20.27734375 20.1171875 C21 23 21 23 20.3359375 25.2421875 C18.91189886 27.11592255 17.70083754 28.0536043 15.6875 29.25 C10.48110045 32.78252579 7.60209472 37.40636122 6.1875 43.5 C6.125625 44.325 6.06375 45.15 6 46 C4.0470509 45.03216682 2.10792719 44.06006383 0.203125 43 C-22.17041594 31.54474704 -57.93351727 37.05737213 -82.125 40.375 C-82.96603271 40.48884033 -83.80706543 40.60268066 -84.67358398 40.7199707 C-89.86592422 41.49266186 -94.76676631 42.71172785 -99.76904297 44.30322266 C-100.50525879 44.53315918 -101.24147461 44.7630957 -102 45 C-103.02468384 45.32133911 -103.02468384 45.32133911 -104.07006836 45.64916992 C-107.42916538 46.25979894 -110.52353653 44.74692183 -113.6875 43.6875 C-139.49031547 35.74922245 -176.42143718 35.21695186 -202.49609375 42.4765625 C-205 43 -205 43 -208 42 C-206.31593731 41.34525592 -204.62753664 40.70166594 -202.9375 40.0625 C-201.52791016 39.52302734 -201.52791016 39.52302734 -200.08984375 38.97265625 C-192.5547955 36.60068784 -184.91035433 36.81014123 -177.078125 36.76171875 C-175.82352478 36.753647 -174.56892456 36.74557526 -173.27630615 36.73725891 C-170.62020215 36.72345228 -167.96422063 36.71242892 -165.30810547 36.70483398 C-162.62376123 36.6960429 -159.9406715 36.67301238 -157.25634766 36.64331055 C-123.60683541 36.2715501 -123.60683541 36.2715501 -109.18334961 42.14746094 C-103.45812177 44.3830078 -95.60797164 40.59027852 -89.94921875 39.03515625 C-74.92292618 35.61245542 -59.63687104 35.65618359 -44.30541992 35.68432617 C-40.67662115 35.68750954 -37.0486219 35.66385929 -33.41992188 35.63867188 C-31.07552184 35.63640028 -28.73111966 35.63569474 -26.38671875 35.63671875 C-25.32080002 35.627509 -24.25488129 35.61829926 -23.15666199 35.60881042 C-15.73440582 35.65389939 -9.11487459 36.90901733 -2 39 C-2.01047363 37.92516357 -2.02094727 36.85032715 -2.03173828 35.74291992 C-2.06792779 31.75662565 -2.09089663 27.77034592 -2.10986328 23.78393555 C-2.11992326 22.05832477 -2.13357276 20.33273105 -2.15087891 18.60717773 C-2.17512754 16.1273986 -2.18648301 13.64784477 -2.1953125 11.16796875 C-2.20563507 10.39599655 -2.21595764 9.62402435 -2.22659302 8.82865906 C-2.22739422 5.00718524 -2.17242595 3.25863893 0 0 Z " fill="#5A38FD" transform="translate(358,253)"/>
<path d="M0 0 C2.64752004 2.57784846 4.94432065 4.91648098 7 8 C6.72519807 12.1220289 6.13724714 15.54789178 4.9375 19.5 C3.34481949 25.44600724 3.79327264 30.96636321 5 37 C2.69 36.67 0.38 36.34 -2 36 C-2 30.39 -2 24.78 -2 19 C-4.3925 19.309375 -6.785 19.61875 -9.25 19.9375 C-39.72572971 23.57705181 -72.511292 23.82783721 -103.02734375 20.46484375 C-111.22118056 19.61822756 -119.2518136 20.0343437 -127.4475708 20.6987915 C-143.9444335 22.03085046 -160.34974523 22.31353938 -176.89160156 22.26074219 C-180.57695782 22.24913346 -184.26202939 22.25608748 -187.94737625 22.26788712 C-190.84204237 22.2751351 -193.7366413 22.27280796 -196.63130951 22.26763153 C-198.6413543 22.26568482 -200.65140191 22.27166333 -202.66143799 22.27789307 C-219.81021103 22.18978897 -219.81021103 22.18978897 -224 18 C-222.82284424 18.16153564 -221.64568848 18.32307129 -220.43286133 18.48950195 C-213.6609914 19.236314 -206.87890795 19.1636132 -200.07421875 19.16796875 C-198.61480156 19.17179028 -197.15538484 19.17579727 -195.69596863 19.17997742 C-191.82369715 19.18895224 -187.95146555 19.18982426 -184.07918549 19.1880722 C-181.682445 19.18749879 -179.28571631 19.18937381 -176.88897705 19.19171143 C-157.90017608 19.20475958 -138.9389144 19.19552869 -120.0065918 17.53588867 C-113.17084967 16.98424194 -106.81358462 17.12847579 -100.03125 17.93359375 C-86.62675491 19.50401029 -73.17559048 19.26199247 -59.7019043 19.19561768 C-56.92292048 19.18475589 -54.1439859 19.18515102 -51.36498451 19.18575573 C-47.98549183 19.18541508 -44.60604464 19.17656235 -41.2265625 19.16796875 C-40.00538727 19.16685593 -38.78421204 19.1657431 -37.52603149 19.16459656 C-30.39488805 19.1258991 -23.34108485 18.80884988 -16.23373413 18.21894836 C-11.15584279 17.87513655 -6.08650193 17.91615656 -1 18 C-1.01160156 17.11957031 -1.02320313 16.23914063 -1.03515625 15.33203125 C-1.04417969 14.17058594 -1.05320312 13.00914062 -1.0625 11.8125 C-1.07410156 10.66394531 -1.08570313 9.51539063 -1.09765625 8.33203125 C-1.01192832 5.40699414 -0.67849023 2.83683709 0 0 Z " fill="#3825FE" transform="translate(365,304)"/>
<path d="M0 0 C5.625 2.25 5.625 2.25 8 6 C6 5 4 4 2 3 C2.0441119 7.93026507 2.11389864 12.85924437 2.20751953 17.78881836 C2.23574768 19.4657976 2.2569531 21.14291035 2.27099609 22.82006836 C2.29240125 25.23100218 2.33903426 27.64032784 2.390625 30.05078125 C2.39246796 31.17592888 2.39246796 31.17592888 2.39434814 32.32380676 C2.50213254 36.64829553 2.50213254 36.64829553 5.03808594 39.99682617 C5.68551758 40.32787354 6.33294922 40.6589209 7 41 C6.67 41.66 6.34 42.32 6 43 C5.401875 42.401875 4.80375 41.80375 4.1875 41.1875 C-6.62281203 33.76865841 -21.88697551 34.82380878 -34.4375 34.875 C-35.66670166 34.87910889 -36.89590332 34.88321777 -38.16235352 34.88745117 C-52.26576493 34.97298213 -66.14147827 35.45729525 -80.125 37.375 C-80.96603271 37.48884033 -81.80706543 37.60268066 -82.67358398 37.7199707 C-87.86592422 38.49266186 -92.76676631 39.71172785 -97.76904297 41.30322266 C-98.50525879 41.53315918 -99.24147461 41.7630957 -100 42 C-101.02468384 42.32133911 -101.02468384 42.32133911 -102.07006836 42.64916992 C-105.42916538 43.25979894 -108.52353653 41.74692183 -111.6875 40.6875 C-137.49031547 32.74922245 -174.42143718 32.21695186 -200.49609375 39.4765625 C-203 40 -203 40 -206 39 C-204.31593731 38.34525592 -202.62753664 37.70166594 -200.9375 37.0625 C-199.52791016 36.52302734 -199.52791016 36.52302734 -198.08984375 35.97265625 C-190.5547955 33.60068784 -182.91035433 33.81014123 -175.078125 33.76171875 C-173.82352478 33.753647 -172.56892456 33.74557526 -171.27630615 33.73725891 C-168.62020215 33.72345228 -165.96422063 33.71242892 -163.30810547 33.70483398 C-160.62376123 33.6960429 -157.9406715 33.67301238 -155.25634766 33.64331055 C-121.60683541 33.2715501 -121.60683541 33.2715501 -107.18334961 39.14746094 C-101.45812177 41.3830078 -93.60797164 37.59027852 -87.94921875 36.03515625 C-72.92292618 32.61245542 -57.63687104 32.65618359 -42.30541992 32.68432617 C-38.67662115 32.68750954 -35.0486219 32.66385929 -31.41992188 32.63867188 C-29.07552184 32.63640028 -26.73111966 32.63569474 -24.38671875 32.63671875 C-23.32080002 32.627509 -22.25488129 32.61829926 -21.15666199 32.60881042 C-13.32656047 32.65637698 -7.97050087 34.00737478 0 36 C0 24.12 0 12.24 0 0 Z " fill="#3523FF" transform="translate(356,256)"/>
<path d="M0 0 C1.18024329 2.36048658 0.95410244 3.40233258 0.75 6 C0.66501342 10.07935563 1.55790095 12.46572069 3.5625 16 C6.34241486 21.06509911 6.41342684 24.47100675 5 30 C4.649375 31.134375 4.29875 32.26875 3.9375 33.4375 C2.16631679 40.16799619 1.90481579 46.89554118 5.390625 53.109375 C9.51551199 57.95511602 16.56181058 62.54275177 22.99291992 63.20532227 C24.10050659 63.26030884 24.10050659 63.26030884 25.23046875 63.31640625 C26.43413086 63.37924805 26.43413086 63.37924805 27.66210938 63.44335938 C28.49548828 63.48267578 29.32886719 63.52199219 30.1875 63.5625 C31.4549707 63.62727539 31.4549707 63.62727539 32.74804688 63.69335938 C34.83184433 63.79931518 36.91590103 63.9001502 39 64 C32.35858326 68.42761116 23.78567871 69.16785181 16 68 C9.24455571 65.04958005 4.36635255 60.05660437 0.6875 53.75 C-0.70782688 48.16869247 -0.54932993 42.47082117 1 36.9375 C2.19145828 32.58342083 2.92644925 28.47654047 2 24 C0.29897125 21.03970221 -1.77254952 18.57298296 -4 16 C-5.46650366 13.06699268 -5.36440295 11.27962656 -5 8 C-3.54771727 5.17668112 -1.83771131 2.58592235 0 0 Z " fill="#F5EFD9" transform="translate(370,286)"/>
<path d="M0 0 C1.50088956 4.50266869 -0.19894578 7.74500941 -2 12 C-5.44490464 17.74150773 -10.85491515 19.95163838 -17 22 C-21.57609345 22.52273727 -24.97418499 22.56524501 -29.0625 20.3125 C-31 18 -31 18 -31.5625 15.5 C-30.79931896 12.10808426 -29.79556746 11.07582953 -27 9 C-24.08192205 8.78655342 -21.51668447 8.75614865 -18.625 8.9375 C-12.89746015 9.27061213 -9.00582495 9.26727497 -4 6 C-1.63297941 2.95202627 -1.63297941 2.95202627 0 0 Z " fill="#603AF6" transform="translate(334,216)"/>
<path d="M0 0 C0.33 0.66 0.66 1.32 1 2 C2.32 2 3.64 2 5 2 C4.34 3.65 3.68 5.3 3 7 C4.32 6.67 5.64 6.34 7 6 C7.33 7.32 7.66 8.64 8 10 C7.34 10 6.68 10 6 10 C8.961024 18.00524629 12.17025802 25.72494556 15.86328125 33.41796875 C17 36 17 36 17 38 C16.34 38 15.68 38 15 38 C18.63 46.25 22.26 54.5 26 63 C25.01 63 24.02 63 23 63 C15 44.33333333 7 25.66666667 -1 7 C-1.99 7.99 -2.98 8.98 -4 10 C-4.33 9.34 -4.66 8.68 -5 8 C-5 8.99 -5 9.98 -5 11 C-5.33 11.99 -5.66 12.98 -6 14 C-7.98 13.34 -9.96 12.68 -12 12 C-11.63166144 5.61546499 -11.63166144 5.61546499 -8.5625 2.625 C-5.03885681 0.39049456 -4.35541256 0 0 0 Z " fill="#868B54" transform="translate(370,230)"/>
<path d="M0 0 C0.33 0 0.66 0 1 0 C0.31876233 6.81237665 -1.17844582 11.55369535 -6.25 16.25 C-11.96355084 20.82563191 -17.91466007 21.46461245 -25 21 C-27.81009519 19.99124788 -28.66697708 19.66604583 -30 17 C-30.3125 14.0625 -30.3125 14.0625 -30 11 C-28.53125 9.296875 -28.53125 9.296875 -26 8 C-23.04903444 7.78464802 -20.13719205 8.00909241 -17.1875 8.1875 C-9.77139965 8.57746142 -9.77139965 8.57746142 -3.4375 5.125 C-1.06619139 2.29694296 -1.06619139 2.29694296 0 0 Z " fill="#5F3AF8" transform="translate(242,217)"/>
<path d="M0 0 C0 3 0 3 -1 4.8125 C-2.36268157 7.79336593 -2.39056573 9.74528556 -2 13 C-0.30864976 15.91612111 1.40893154 18.38782195 3.75 20.8125 C6.04411563 24.82720235 5.54685395 29.59290781 4.54296875 34.01171875 C4.36378906 34.64722656 4.18460937 35.28273438 4 35.9375 C2.06343978 42.99612166 1.98167815 49.71289681 5.66015625 56.1796875 C8.82155688 60.47476823 13.03103159 64.01241263 18 66 C25.80747559 66.78886826 33.38450357 65.67900709 41 64 C41 63.34 41 62.68 41 62 C44.3 61.34 47.6 60.68 51 60 C47.10323626 63.89676374 43.11175005 65.15474461 38 67 C36.865625 67.4125 35.73125 67.825 34.5625 68.25 C25.84318311 70.08564566 18.75352304 69.48803512 11 65 C8.4375 63.25 8.4375 63.25 7 62 C6.67 62.66 6.34 63.32 6 64 C3.03 64 0.06 64 -3 64 C-3.99 58.555 -3.99 58.555 -5 53 C-2.69 53.33 -0.38 53.66 2 54 C1.67 53.175 1.34 52.35 1 51.5 C-0.74247225 45.40134711 -0.39227851 40.84666991 1.5625 34.9375 C2.96835736 30.5104011 3.43337648 27.55307822 2 23 C1.01392779 21.68160511 -0.01048849 20.39140248 -1.0625 19.125 C-4.03370836 15.43067828 -4.78712656 12.83676376 -4.4765625 8.12109375 C-3.71634394 4.73749803 -2.1876867 2.66624317 0 0 Z " fill="#D77553" transform="translate(368,287)"/>
<path d="M0 0 C1.60546875 2.94140625 1.60546875 2.94140625 3.1875 6.5625 C3.71730469 7.76003906 4.24710937 8.95757812 4.79296875 10.19140625 C5.19128906 11.11824219 5.58960938 12.04507812 6 13 C5.01 13 4.02 13 3 13 C1.3125 10.5 1.3125 10.5 0 8 C0.99 10.31 1.98 12.62 3 15 C0.625 15.625 0.625 15.625 -2 16 C-2.66 15.34 -3.32 14.68 -4 14 C-4.33 14.66 -4.66 15.32 -5 16 C-6.65 14.35 -8.3 12.7 -10 11 C-10.33 11.66 -10.66 12.32 -11 13 C-11.66 13 -12.32 13 -13 13 C-13.33 10.03 -13.66 7.06 -14 4 C-13.01 3.67 -12.02 3.34 -11 3 C-10.67 3.33 -10.34 3.66 -10 4 C-9.34 4 -8.68 4 -8 4 C-8 3.01 -8 2.02 -8 1 C-3.375 -1.125 -3.375 -1.125 0 0 Z " fill="#75311B" transform="translate(398,297)"/>
<path d="M0 0 C-0.33 0.33 -0.66 0.66 -1 1 C-1.54284213 10.09033635 -0.65270336 19.10295028 0.375 28.125 C0.50132813 29.30964844 0.62765625 30.49429687 0.7578125 31.71484375 C1.45864124 38.07136039 2.34066312 44.32620882 3.61962891 50.59326172 C4.01592496 53.10076269 4.06495404 55.46566275 4 58 C0.78627211 54.78627211 0.75811201 50.69078085 0 46.3125 C-0.17370117 45.32113037 -0.34740234 44.32976074 -0.52636719 43.30834961 C-2.74937408 29.64603284 -3.3313465 15.80932565 -4 2 C-6.31 2.33 -8.62 2.66 -11 3 C-10.86424561 3.63800537 -10.72849121 4.27601074 -10.58862305 4.93334961 C-6.01630186 26.48304957 -6.01630186 26.48304957 -4.1875 36.8125 C-4.0639917 37.50400146 -3.9404834 38.19550293 -3.81323242 38.90795898 C-3.33844598 41.65322084 -3 44.20699286 -3 47 C-3.66 47 -4.32 47 -5 47 C-6.00251278 41.53836219 -6.99925802 36.07571478 -7.99072266 30.61206055 C-8.32866471 28.75435125 -8.66816842 26.89692533 -9.00927734 25.03979492 C-9.49990172 22.36710788 -9.98486204 19.69344506 -10.46875 17.01953125 C-10.62186646 16.19226028 -10.77498291 15.36498932 -10.93273926 14.51264954 C-11.63075117 10.625607 -12.19616821 6.96890331 -12 3 C-12.66 2.67 -13.32 2.34 -14 2 C-12.37280374 0.37280374 -10.3422442 0.33130243 -8.125 -0.125 C-7.24070312 -0.31320312 -6.35640625 -0.50140625 -5.4453125 -0.6953125 C-3 -1 -3 -1 0 0 Z " fill="#3825FF" transform="translate(126,275)"/>
<path d="M0 0 C0.99 0.33 1.98 0.66 3 1 C3 1.66 3 2.32 3 3 C4.98 2.67 6.96 2.34 9 2 C9.72726052 3.5747294 10.43120422 5.16024279 11.125 6.75 C11.51945312 7.63171875 11.91390625 8.5134375 12.3203125 9.421875 C13 12 13 12 12.328125 14.171875 C10.90961111 16.12441764 9.64471852 17.19467973 7.625 18.5 C4.72714824 20.38934828 2.39978899 22.50506519 0 25 C0.9078313 12.32899291 0.9078313 12.32899291 1.6875 7.4375 C1.9939646 4.06638938 1.92580863 2.71878866 0 0 Z " fill="#5032FB" transform="translate(366,264)"/>
<path d="M0 0 C3.0461418 2.5775046 4.79338443 4.34141287 6 8.1875 C6 12.42407792 5.03020191 15.53012303 3.70703125 19.51171875 C2.14018561 25.02597662 2.88648126 30.43240632 4 36 C2.33388095 36.042721 0.66617115 36.04063832 -1 36 C-2 35 -2 35 -2.03759766 33.07324219 C-1.99683105 32.23954102 -1.95606445 31.40583984 -1.9140625 30.546875 C-1.87079834 29.62277832 -1.82753418 28.69868164 -1.78295898 27.74658203 C-1.73083252 26.75770996 -1.67870605 25.76883789 -1.625 24.75 C-1.57609619 23.75468262 -1.52719238 22.75936523 -1.47680664 21.73388672 C-1.10866267 14.47821074 -0.64177824 7.23707375 0 0 Z " fill="#5D39F8" transform="translate(366,305)"/>
<path d="M0 0 C3.40020192 2.73769101 4.74081942 6.49379899 6.390625 10.40625 C6.69949646 11.12735962 7.00836792 11.84846924 7.32659912 12.59143066 C7.97564515 14.11293712 8.62093114 15.63605232 9.26269531 17.16064453 C10.2486224 19.49673586 11.25240735 21.82458022 12.2578125 24.15234375 C12.88651191 25.63234772 13.51415277 27.11280191 14.140625 28.59375 C14.44260803 29.2906897 14.74459106 29.98762939 15.0557251 30.70568848 C17.11470569 35.65588292 17.11470569 35.65588292 16 39 C10.9597702 28.47526483 6.35881437 17.8241682 2 7 C2.185625 7.969375 2.37125 8.93875 2.5625 9.9375 C2.706875 10.948125 2.85125 11.95875 3 13 C2.67 13.33 2.34 13.66 2 14 C2.33 14.66 2.66 15.32 3 16 C3.33 15.34 3.66 14.68 4 14 C6.53309233 18.64203897 8.46515599 22.65155992 9 28 C8.34 27.34 7.68 26.68 7 26 C6.34 26.33 5.68 26.66 5 27 C3.70043899 24.14936461 2.41182847 21.29390298 1.125 18.4375 C0.57779297 17.23770508 0.57779297 17.23770508 0.01953125 16.01367188 C-2.05471243 11.3937655 -3.74814814 6.90857702 -5 2 C-3.68 2 -2.36 2 -1 2 C-0.67 1.34 -0.34 0.68 0 0 Z " fill="#BC5F35" transform="translate(368,236)"/>
<path d="M0 0 C12.74931596 5.79747567 12.74931596 5.79747567 17 11 C17.9375 14.375 17.9375 14.375 18 17 C14.37 17 10.74 17 7 17 C5.82592979 14.73272667 4.66060261 12.46165376 3.5 10.1875 C3.16613281 9.54490234 2.83226562 8.90230469 2.48828125 8.24023438 C0.99760916 5.30452301 0 3.33873483 0 0 Z " fill="#583AFD" transform="translate(383,257)"/>
<path d="M0 0 C1.18024329 2.36048658 0.95410244 3.40233258 0.75 6 C0.66501342 10.07935563 1.55790095 12.46572069 3.5625 16 C7.64922118 23.44614453 5.22187757 29.22342849 3 37 C2.567716 39.99236594 2.25952949 42.98809193 2 46 C0 43 0 43 0.2421875 40.8359375 C0.55542969 39.61777344 0.55542969 39.61777344 0.875 38.375 C2.93784873 29.86260848 2.93784873 29.86260848 0.69140625 21.73046875 C-0.80087773 19.7443354 -2.37490234 17.87719037 -4 16 C-5.46650366 13.06699268 -5.36440295 11.27962656 -5 8 C-3.54771727 5.17668112 -1.83771131 2.58592235 0 0 Z " fill="#EFE5CF" transform="translate(370,286)"/>
<path d="M0 0 C0.70640625 -0.00257813 1.4128125 -0.00515625 2.140625 -0.0078125 C5.70906568 0.17381472 9.20806952 0.65423709 12.75 1.125 C13.22993156 3.66652435 13.70896727 6.20821222 14.1875 8.75 C14.32220703 9.46285156 14.45691406 10.17570312 14.59570312 10.91015625 C14.86183665 12.32520768 15.12544321 13.74073679 15.38647461 15.15673828 C15.69836367 16.84542172 16.02008482 18.53228405 16.34375 20.21875 C16.80431726 23.5135773 16.8464333 26.6745363 16.8125 30 C16.80347656 31.15242188 16.79445312 32.30484375 16.78515625 33.4921875 C16.77355469 34.36101562 16.76195312 35.22984375 16.75 36.125 C17.53375 35.609375 18.3175 35.09375 19.125 34.5625 C19.99125 34.088125 20.8575 33.61375 21.75 33.125 C22.74 33.62 22.74 33.62 23.75 34.125 C22.53437378 34.8660498 22.53437378 34.8660498 21.29418945 35.62207031 C18.42347005 38.44623453 18.14191597 39.96134204 18.03105164 43.91448975 C18.03695061 45.03189545 18.03695061 45.03189545 18.04296875 46.171875 C18.02784744 46.94307678 18.01272614 47.71427856 17.99714661 48.5088501 C17.95426505 50.96453069 17.94543194 53.4189823 17.9375 55.875 C17.91435579 57.54300143 17.8889906 59.21097363 17.86132812 60.87890625 C17.79847218 64.96104614 17.76614044 69.0424189 17.75 73.125 C17.42 73.125 17.09 73.125 16.75 73.125 C16.73541748 72.14966309 16.72083496 71.17432617 16.70581055 70.16943359 C17.31198739 36.48531402 17.31198739 36.48531402 9.75 4.125 C7.453463 2.9767315 6.16686833 3.00938825 3.6171875 3.02734375 C2.81152344 3.03056641 2.00585938 3.03378906 1.17578125 3.03710938 C-0.08685547 3.04967773 -0.08685547 3.04967773 -1.375 3.0625 C-2.64923828 3.06926758 -2.64923828 3.06926758 -3.94921875 3.07617188 C-6.04950909 3.08797126 -8.1497633 3.10590694 -10.25 3.125 C-7.20100424 0.07600424 -4.18520084 -0.01505468 0 0 Z " fill="#3222FF" transform="translate(122.25,264.875)"/>
<path d="M0 0 C4.70354707 2.25969879 6.14575567 4.57174972 8.18359375 9.3125 C8.4476149 9.92262939 8.71163605 10.53275879 8.98365784 11.16137695 C9.53477002 12.44579615 10.07810104 13.73357907 10.61401367 15.02441406 C11.43876563 17.00303632 12.29443392 18.96610887 13.15429688 20.9296875 C13.68679018 22.18148754 14.2174545 23.43406751 14.74609375 24.6875 C15.22747803 25.82574219 15.7088623 26.96398437 16.20483398 28.13671875 C16.46723877 29.08160156 16.72964355 30.02648437 17 31 C16.01 32.485 16.01 32.485 15 34 C11.88456453 31.38619756 10.66485452 28.38677662 9.08203125 24.6875 C8.81992355 24.07737061 8.55781586 23.46724121 8.2877655 22.83862305 C7.73725223 21.55243685 7.19030907 20.26471742 6.64672852 18.97558594 C5.81374124 17.00293945 4.96735209 15.03645342 4.11914062 13.0703125 C3.58513027 11.81805226 3.05190022 10.56545892 2.51953125 9.3125 C2.03589111 8.17425781 1.55225098 7.03601563 1.05395508 5.86328125 C0 3 0 3 0 0 Z " fill="#BB5A31" transform="translate(374,263)"/>
<path d="M0 0 C-0.30782496 1.64671412 -0.62139234 3.29235576 -0.9375 4.9375 C-1.11152344 5.85402344 -1.28554687 6.77054687 -1.46484375 7.71484375 C-2 10 -2 10 -3 11 C-5.67058851 11.14115161 -8.32432238 11.04247107 -11 11 C-11.50615298 9.73160474 -12.00469099 8.46016898 -12.5 7.1875 C-12.7784375 6.47980469 -13.056875 5.77210938 -13.34375 5.04296875 C-14 3 -14 3 -14 0 C-12.04235617 -0.19456705 -10.08384679 -0.38044247 -8.125 -0.5625 C-6.48917969 -0.71912109 -6.48917969 -0.71912109 -4.8203125 -0.87890625 C-2 -1 -2 -1 0 0 Z " fill="#C3926F" transform="translate(140,340)"/>
<path d="M0 0 C0.33 0 0.66 0 1 0 C1.33 2.64 1.66 5.28 2 8 C2.7425 7.896875 3.485 7.79375 4.25 7.6875 C7 8 7 8 9.1875 10.125 C11 13 11 13 13 19 C6.565 19.495 6.565 19.495 0 20 C0 13.4 0 6.8 0 0 Z " fill="#EAD9E4" transform="translate(356,234)"/>
<path d="M0 0 C2.70597842 3.26287108 4.24071673 6.5958961 5.85546875 10.50390625 C6.11848785 11.1357785 6.38150696 11.76765076 6.65249634 12.41867065 C7.50274572 14.46448251 8.34513622 16.51343032 9.1875 18.5625 C9.76919676 19.96581616 10.35147437 21.36889169 10.93432617 22.77172852 C12.08981734 25.55418317 13.24273108 28.33768209 14.39355469 31.12207031 C16.50965017 36.23714387 18.65862769 41.33823879 20.8125 46.4375 C21.44410482 47.93615813 22.07562694 49.43485113 22.70703125 50.93359375 C23.34705078 52.45146484 23.34705078 52.45146484 24 54 C23.01 54.495 23.01 54.495 22 55 C20.20694946 50.93810941 18.41580212 46.87538231 16.625 42.8125 C16.11710937 41.66201172 15.60921875 40.51152344 15.0859375 39.32617188 C14.59609375 38.21435547 14.10625 37.10253906 13.6015625 35.95703125 C12.92601318 34.42526245 12.92601318 34.42526245 12.23681641 32.86254883 C11.11146539 30.25798099 10.03903705 27.64000231 9 25 C8.34 25.33 7.68 25.66 7 26 C5.9375 24.1875 5.9375 24.1875 5 22 C5.33 21.01 5.66 20.02 6 19 C5.47056706 16.68586626 5.47056706 16.68586626 4.5625 14.3125 C4.13130859 13.10013672 4.13130859 13.10013672 3.69140625 11.86328125 C3.46324219 11.24839844 3.23507812 10.63351563 3 10 C2.67 11.32 2.34 12.64 2 14 C-0.125 7.25 -0.125 7.25 1 5 C0.72057545 3.32345271 0.39171753 1.65391846 0 0 Z " fill="#83864D" transform="translate(369,241)"/>
<path d="M0 0 C1.32 0.66 2.64 1.32 4 2 C4 4.31 4 6.62 4 9 C-0.40461018 9.95234815 -4.50886589 10 -9 10 C-9 7.03 -9 4.06 -9 1 C-7.35 1 -5.7 1 -4 1 C-3.67 1.99 -3.34 2.98 -3 4 C-2.01 2.68 -1.02 1.36 0 0 Z " fill="#E77D5A" transform="translate(261,365)"/>
<path d="M0 0 C9.375 0 9.375 0 13 1 C11.68 1.33 10.36 1.66 9 2 C9 2.66 9 3.32 9 4 C10.32 4.33 11.64 4.66 13 5 C12.67 6.65 12.34 8.3 12 10 C8.04 10 4.08 10 0 10 C0.66 9.67 1.32 9.34 2 9 C2 6.69 2 4.38 2 2 C1.34 2 0.68 2 0 2 C0 1.34 0 0.68 0 0 Z " fill="#F5C9BA" transform="translate(237,365)"/>
<path d="M0 0 C0.99 0.33 1.98 0.66 3 1 C2.34 2.65 1.68 4.3 1 6 C2.32 5.67 3.64 5.34 5 5 C5.33 6.32 5.66 7.64 6 9 C5.34 9 4.68 9 4 9 C7.41531723 18.10033229 7.41531723 18.10033229 11.3125 27 C12.74689427 30.12801643 13.45167202 32.49954186 13 36 C10.04442335 34.52221167 9.71269747 32.43867282 8.43359375 29.42578125 C7.7055957 27.71165039 7.7055957 27.71165039 6.96289062 25.96289062 C6.20782227 24.15594727 6.20782227 24.15594727 5.4375 22.3125 C4.67663086 20.53456055 4.67663086 20.53456055 3.90039062 18.72070312 C-1.76036956 5.28110869 -1.76036956 5.28110869 0 0 Z " fill="#BA6940" transform="translate(372,231)"/>
<path d="M0 0 C0 3 0 3 -1 4.8125 C-2.36268157 7.79336593 -2.39056573 9.74528556 -2 13 C-0.30864976 15.91612111 1.40893154 18.38782195 3.75 20.8125 C6.04411563 24.82720235 5.54685395 29.59290781 4.54296875 34.01171875 C4.36378906 34.64722656 4.18460937 35.28273438 4 35.9375 C2.16940969 42.47532252 2.1783917 48.79246175 5 55 C4.67 55.99 4.34 56.98 4 58 C0.11293375 49.53174853 -1.34690209 43.8677481 1.5625 34.9375 C2.96835736 30.5104011 3.43337648 27.55307822 2 23 C1.01392779 21.68160511 -0.01048849 20.39140248 -1.0625 19.125 C-4.03370836 15.43067828 -4.78712656 12.83676376 -4.4765625 8.12109375 C-3.71634394 4.73749803 -2.1876867 2.66624317 0 0 Z " fill="#CD6047" transform="translate(368,287)"/>
<path d="M0 0 C0.82757813 0.49113281 0.82757813 0.49113281 1.671875 0.9921875 C4.38780923 2.16787715 6.30551759 2.20248638 9.25 2.125 C10.58804687 2.09792969 10.58804687 2.09792969 11.953125 2.0703125 C12.62859375 2.04710937 13.3040625 2.02390625 14 2 C14.86627399 3.59766103 15.71766465 5.20339944 16.5625 6.8125 C17.03816406 7.70582031 17.51382812 8.59914063 18.00390625 9.51953125 C19 12 19 12 18 15 C15.4375 16.1875 15.4375 16.1875 13 17 C11.4375 14.1875 11.4375 14.1875 10 11 C10.33 10.01 10.66 9.02 11 8 C11.33 9.32 11.66 10.64 12 12 C12.66 12 13.32 12 14 12 C13.505 11.05125 13.01 10.1025 12.5 9.125 C11 6 11 6 11 4 C10.34 4 9.68 4 9 4 C8.67 4.99 8.34 5.98 8 7 C6.35 7 4.7 7 3 7 C3 5.68 3 4.36 3 3 C2.01 3 1.02 3 0 3 C0 2.01 0 1.02 0 0 Z " fill="#A44324" transform="translate(388,311)"/>
<path d="M0 0 C0.53625 0.226875 1.0725 0.45375 1.625 0.6875 C1.625 1.3475 1.625 2.0075 1.625 2.6875 C2.615 3.0175 3.605 3.3475 4.625 3.6875 C2.73851956 4.72551555 0.84036344 5.74233167 -1.0625 6.75 C-2.11824219 7.31847656 -3.17398437 7.88695312 -4.26171875 8.47265625 C-7.59887221 9.77485791 -9.02535056 9.77504852 -12.375 8.6875 C-12.705 7.0375 -13.035 5.3875 -13.375 3.6875 C-12.055 3.6875 -10.735 3.6875 -9.375 3.6875 C-9.045 4.0175 -8.715 4.3475 -8.375 4.6875 C-8.375 4.0275 -8.375 3.3675 -8.375 2.6875 C-2.95961538 -0.38942308 -2.95961538 -0.38942308 0 0 Z " fill="#AE4E2E" transform="translate(411.375,325.3125)"/>
<path d="M0 0 C5.33380803 0.26231843 5.33380803 0.26231843 8 1 C9.9375 3.4375 9.9375 3.4375 11 6 C11.33 6.66 11.66 7.32 12 8 C11.67 8.99 11.34 9.98 11 11 C8.03 11 5.06 11 2 11 C1.34 7.37 0.68 3.74 0 0 Z " fill="#C5946F" transform="translate(363,340)"/>
<path d="M0 0 C0.99 0.33 1.98 0.66 3 1 C4.72082924 1 6.34228586 0.4277972 8 0 C8.66835187 3.0911274 9 5.83229329 9 9 C1.75 9 1.75 9 -2 8 C-2.125 5.125 -2.125 5.125 -2 2 C-1.34 1.34 -0.68 0.68 0 0 Z " fill="#F3BDAA" transform="translate(247,381)"/>
<path d="M0 0 C1.60546875 2.94140625 1.60546875 2.94140625 3.1875 6.5625 C3.71730469 7.76003906 4.24710937 8.95757812 4.79296875 10.19140625 C5.19128906 11.11824219 5.58960938 12.04507812 6 13 C5.01 13 4.02 13 3 13 C1.3125 10.5 1.3125 10.5 0 8 C0.99 10.31 1.98 12.62 3 15 C2.01 15 1.02 15 0 15 C-1.00460531 12.87717331 -2.00355602 10.75166979 -3 8.625 C-3.556875 7.44164062 -4.11375 6.25828125 -4.6875 5.0390625 C-6 2 -6 2 -6 0 C-3 -1 -3 -1 0 0 Z " fill="#77321C" transform="translate(398,297)"/>
<path d="M0 0 C3.21658281 3.7949589 5.11135915 8.14984649 7.1875 12.625 C7.55552734 13.40101563 7.92355469 14.17703125 8.30273438 14.9765625 C11 20.7414048 11 20.7414048 11 23 C11.556875 23.103125 12.11375 23.20625 12.6875 23.3125 C15.44176578 24.13133577 17.58727657 25.45853781 20 27 C19.67 27.66 19.34 28.32 19 29 C15.64883052 28.44147175 12.86989364 27.84810161 10 26 C8.62792969 23.70922852 8.62792969 23.70922852 7.421875 20.87890625 C6.98359375 19.86119141 6.5453125 18.84347656 6.09375 17.79492188 C5.6503125 16.72822266 5.206875 15.66152344 4.75 14.5625 C4.29109375 13.49966797 3.8321875 12.43683594 3.359375 11.34179688 C0 3.4382673 0 3.4382673 0 0 Z " fill="#7B7D4E" transform="translate(387,268)"/>
<path d="M0 0 C10.74259681 5.0022779 10.74259681 5.0022779 14 9 C10.27185408 8.93037418 6.65841413 8.75002886 3 8 C0.35529537 5.1286064 0 3.87297078 0 0 Z " fill="#6141FA" transform="translate(383,257)"/>
<path d="M0 0 C3 1 3 1 4.16796875 2.890625 C7.55201294 10.72189969 7.55201294 10.72189969 7 15 C5.5 13.625 5.5 13.625 4 12 C4 11.34 4 10.68 4 10 C3.34 10 2.68 10 2 10 C-0.09350689 6.5980513 -0.17942163 3.94727588 0 0 Z " fill="#9D4123" transform="translate(390,298)"/>
<path d="M0 0 C0.66 0.33 1.32 0.66 2 1 C2 3.31 2 5.62 2 8 C2.66 8 3.32 8 4 8 C4.33 7.01 4.66 6.02 5 5 C6.33332095 7.6666419 5.67102033 9.16680303 5 12 C5.99 12 6.98 12 8 12 C8 12.66 8 13.32 8 14 C8.99 14.33 9.98 14.66 11 15 C9.68 15 8.36 15 7 15 C7 14.34 7 13.68 7 13 C5.824375 12.8453125 5.824375 12.8453125 4.625 12.6875 C2 12 2 12 0 9 C-0.60003647 6.31809785 -0.77789092 3.75415263 -1 1 C-0.67 0.67 -0.34 0.34 0 0 Z " fill="#D2AE95" transform="translate(383,302)"/>
<path d="M0 0 C0.99 0.33 1.98 0.66 3 1 C2.34 2.65 1.68 4.3 1 6 C2.32 5.67 3.64 5.34 5 5 C5.33 6.32 5.66 7.64 6 9 C5.34 9 4.68 9 4 9 C3.67 10.65 3.34 12.3 3 14 C2.34 13.01 1.68 12.02 1 11 C0.4121875 10.13375 0.4121875 10.13375 -0.1875 9.25 C-1.36513195 5.98886538 -0.64352802 3.34634569 0 0 Z " fill="#C7643D" transform="translate(372,231)"/>
<path d="M0 0 C0.66 1.32 1.32 2.64 2 4 C2.66 4 3.32 4 4 4 C4.83986084 5.93467942 5.67168027 7.87285129 6.5 9.8125 C7.19609375 11.43091797 7.19609375 11.43091797 7.90625 13.08203125 C9 16 9 16 9 19 C8.34 19 7.68 19 7 19 C5.8265684 16.39869373 4.66107492 13.79431492 3.5 11.1875 C2.99919922 10.08051758 2.99919922 10.08051758 2.48828125 8.95117188 C2.17246094 8.23896484 1.85664063 7.52675781 1.53125 6.79296875 C1.23798828 6.1383667 0.94472656 5.48376465 0.64257812 4.80932617 C0 3 0 3 0 0 Z " fill="#A56542" transform="translate(374,263)"/>
<path d="M0 0 C0.99 0.33 1.98 0.66 3 1 C3 3.31 3 5.62 3 8 C1.0625 8.5625 1.0625 8.5625 -1 9 C-2 8 -2 8 -2.1875 5.0625 C-2 2 -2 2 0 0 Z " fill="#EEA58D" transform="translate(247,381)"/>
<path d="M0 0 C0.99 0.33 1.98 0.66 3 1 C3.08159574 5.16138263 2.98248524 8.9472484 2 13 C1.01 13 0.02 13 -1 13 C-0.67 8.71 -0.34 4.42 0 0 Z " fill="#B9927C" transform="translate(407,299)"/>
<path d="M0 0 C3.26460973 1.80412643 4.88929795 2.83394693 7 6 C7.125 8.6875 7.125 8.6875 7 11 C6.01 11.495 6.01 11.495 5 12 C4.16180842 10.37750059 3.3295884 8.75191503 2.5 7.125 C2.0359375 6.22007812 1.571875 5.31515625 1.09375 4.3828125 C0 2 0 2 0 0 Z " fill="#77311B" transform="translate(399,296)"/>
<path d="M0 0 C3.82669043 3.42388092 5.72278474 6.00724943 7 11 C6.34 11.66 5.68 12.32 5 13 C2.64829956 10.86209051 1.11208165 8.99406599 0 6 C-0.125 2.75 -0.125 2.75 0 0 Z " fill="#9E5C33" transform="translate(384,284)"/>
<path d="M0 0 C-6.0605925 3.36561591 -11.03949747 5.61330541 -18 6 C-15.4345406 3.4345406 -13.52313332 3.45953913 -10 3 C-10 2.34 -10 1.68 -10 1 C-8.71073008 0.63720544 -7.41846728 0.28503302 -6.125 -0.0625 C-5.40570313 -0.25972656 -4.68640625 -0.45695312 -3.9453125 -0.66015625 C-2 -1 -2 -1 0 0 Z " fill="#D06E4D" transform="translate(419,348)"/>
<path d="M0 0 C1.98 0 3.96 0 6 0 C6 0.66 6 1.32 6 2 C5.34 2 4.68 2 4 2 C4.33 4.64 4.66 7.28 5 10 C3.35 10 1.7 10 0 10 C0.66 9.67 1.32 9.34 2 9 C2 6.69 2 4.38 2 2 C1.34 2 0.68 2 0 2 C0 1.34 0 0.68 0 0 Z " fill="#EC9A7E" transform="translate(237,365)"/>
<path d="M0 0 C0.66 0 1.32 0 2 0 C2 0.66 2 1.32 2 2 C2.556875 2.103125 3.11375 2.20625 3.6875 2.3125 C6.44176578 3.13133577 8.58727657 4.45853781 11 6 C10.67 6.66 10.34 7.32 10 8 C3.73913043 6.95652174 3.73913043 6.95652174 1 5 C0.25 2.375 0.25 2.375 0 0 Z " fill="#A99573" transform="translate(396,289)"/>
<path d="M0 0 C0.99 0.33 1.98 0.66 3 1 C3.73046875 2.84765625 3.73046875 2.84765625 4.1875 5.0625 C4.34605469 5.79597656 4.50460937 6.52945312 4.66796875 7.28515625 C4.83232422 8.13400391 4.83232422 8.13400391 5 9 C4.34 9 3.68 9 3 9 C2.67 7.02 2.34 5.04 2 3 C1.34 3 0.68 3 0 3 C-0.33 4.98 -0.66 6.96 -1 9 C-1.66 8.67 -2.32 8.34 -3 8 C-2.01 5.36 -1.02 2.72 0 0 Z " fill="#E9896A" transform="translate(268,366)"/>
<path d="M0 0 C1.32 0 2.64 0 4 0 C3.67 2.64 3.34 5.28 3 8 C2.01 8 1.02 8 0 8 C0 5.36 0 2.72 0 0 Z " fill="#F5C8B9" transform="translate(253,366)"/>
<path d="M0 0 C0.515625 0.309375 1.03125 0.61875 1.5625 0.9375 C4.66665423 2.29059287 7.65115007 2.61359424 11 3 C10.01 3.495 10.01 3.495 9 4 C8.67 4.99 8.34 5.98 8 7 C6.35 7 4.7 7 3 7 C3 5.68 3 4.36 3 3 C2.01 3 1.02 3 0 3 C0 2.01 0 1.02 0 0 Z " fill="#975239" transform="translate(388,311)"/>
<path d="M0 0 C2.0625 0.4375 2.0625 0.4375 4 1 C4.79953138 4.28696233 5.09658936 5.71023192 4 9 C2.35 9 0.7 9 -1 9 C0.32 6.69 1.64 4.38 3 2 C1.68 1.67 0.36 1.34 -1 1 C-0.67 0.67 -0.34 0.34 0 0 Z " fill="#EFA891" transform="translate(239,381)"/>
<path d="M0 0 C2.74792483 3.40219265 6 7.48464588 6 12 C3 11 3 11 1.796875 9.2578125 C1.45140625 8.55398438 1.1059375 7.85015625 0.75 7.125 C0.39421875 6.42632812 0.0384375 5.72765625 -0.328125 5.0078125 C-1 3 -1 3 0 0 Z " fill="#76311B" transform="translate(401,313)"/>
<path d="M0 0 C-3.42094242 2.28062828 -4.68187222 2.21925007 -8.6875 2.125 C-10.17830078 2.09792969 -10.17830078 2.09792969 -11.69921875 2.0703125 C-12.45847656 2.04710937 -13.21773438 2.02390625 -14 2 C-13.67 1.34 -13.34 0.68 -13 0 C-11.07421875 -0.44921875 -11.07421875 -0.44921875 -8.6875 -0.6875 C-7.51767578 -0.81705078 -7.51767578 -0.81705078 -6.32421875 -0.94921875 C-4.00712895 -0.99984424 -2.20712606 -0.67173402 0 0 Z " fill="#D38265" transform="translate(402,354)"/>
<path d="M0 0 C0.99 0.66 1.98 1.32 3 2 C2.01 2.33 1.02 2.66 0 3 C0 3.99 0 4.98 0 6 C-0.66 6 -1.32 6 -2 6 C-2 6.66 -2 7.32 -2 8 C-4 7 -4 7 -6 5 C-5.67 4.01 -5.34 3.02 -5 2 C-3.35 2 -1.7 2 0 2 C0 1.34 0 0.68 0 0 Z " fill="#D77B58" transform="translate(390,295)"/>
<path d="M0 0 C1.32 0.33 2.64 0.66 4 1 C4 2.65 4 4.3 4 6 C2.68 6 1.36 6 0 6 C0 4.02 0 2.04 0 0 Z " fill="#FEF9F5" transform="translate(260,367)"/>
<path d="M0 0 C0 2.97 0 5.94 0 9 C-0.66 8.34 -1.32 7.68 -2 7 C-2 6.01 -2 5.02 -2 4 C-3.32 3.67 -4.64 3.34 -6 3 C-6 2.34 -6 1.68 -6 1 C-1.125 0 -1.125 0 0 0 Z " fill="#FCEEE7" transform="translate(252,366)"/>
<path d="M0 0 C2.56687367 3.8503105 1.83288724 5.58569763 1 10 C0.34 10 -0.32 10 -1 10 C-1.33 7.03 -1.66 4.06 -2 1 C-1.34 0.67 -0.68 0.34 0 0 Z " fill="#9B482C" transform="translate(386,300)"/>
<path d="M0 0 C0.99 0.33 1.98 0.66 3 1 C2.67 1.33 2.34 1.66 2 2 C1.84417697 3.34015221 1.74955858 4.68758903 1.68359375 6.03515625 C1.64169922 6.84404297 1.59980469 7.65292969 1.55664062 8.48632812 C1.51732422 9.33646484 1.47800781 10.18660156 1.4375 11.0625 C1.39431641 11.91650391 1.35113281 12.77050781 1.30664062 13.65039062 C1.20023298 15.76672037 1.09958269 17.88333813 1 20 C0.67 20 0.34 20 0 20 C0 14.06 0 8.12 0 2 C-0.66 1.67 -1.32 1.34 -2 1 C-1.34 0.67 -0.68 0.34 0 0 Z " fill="#2D1FFF" transform="translate(123,274)"/>
<path d="M0 0 C3 -0.3125 3 -0.3125 6 0 C6.66 0.66 7.32 1.32 8 2 C4.78548731 3.60725635 1.56387464 3.05748185 -2 3 C-1.34 2.01 -0.68 1.02 0 0 Z " fill="#F3EAF3" transform="translate(175,212)"/>
<path d="M0 0 C1.65 0 3.3 0 5 0 C5 0.66 5 1.32 5 2 C4.01 2 3.02 2 2 2 C2 2.66 2 3.32 2 4 C2.99 4 3.98 4 5 4 C4.67 5.32 4.34 6.64 4 8 C4 7.01 4 6.02 4 5 C2.68 5 1.36 5 0 5 C0 3.35 0 1.7 0 0 Z " fill="#EEA38A" transform="translate(258,381)"/>
<path d="M0 0 C0.99 0 1.98 0 3 0 C4.60355101 3.50776784 5.22036864 6.14354879 5 10 C3 9 3 9 2.1484375 6.93359375 C1.89320313 6.10988281 1.63796875 5.28617187 1.375 4.4375 C1.11460937 3.61121094 0.85421875 2.78492188 0.5859375 1.93359375 C0.39257812 1.29550781 0.19921875 0.65742188 0 0 Z " fill="#B3603A" transform="translate(380,257)"/>
<path d="M0 0 C1.9375 0.3125 1.9375 0.3125 4 1 C4.33 1.99 4.66 2.98 5 4 C3.02 4.33 1.04 4.66 -1 5 C-0.67 3.35 -0.34 1.7 0 0 Z " fill="#8B4F3A" transform="translate(409,325)"/>
<path d="M0 0 C0.66 0 1.32 0 2 0 C2 0.66 2 1.32 2 2 C2.66 2 3.32 2 4 2 C5.35439668 4.70879335 5.06501451 7.00933268 5 10 C2.35534962 6.8745041 1.15585285 3.91211733 0 0 Z " fill="#AB5F45" transform="translate(369,253)"/>
<path d="M0 0 C0.66 0.33 1.32 0.66 2 1 C1.34 2.65 0.68 4.3 0 6 C-0.99 6 -1.98 6 -3 6 C-3.33 4.68 -3.66 3.36 -4 2 C-2.125 0.9375 -2.125 0.9375 0 0 Z " fill="#7C3E29" transform="translate(407,326)"/>
<path d="M0 0 C0.66 0.33 1.32 0.66 2 1 C2 3.64 2 6.28 2 9 C1.34 9 0.68 9 0 9 C-0.87890625 2.84765625 -0.87890625 2.84765625 -1 1 C-0.67 0.67 -0.34 0.34 0 0 Z " fill="#E0D2BC" transform="translate(383,302)"/>
<path d="M0 0 C0.33 1.32 0.66 2.64 1 4 C0.34 4 -0.32 4 -1 4 C-1.33 4.99 -1.66 5.98 -2 7 C-2.66 5.02 -3.32 3.04 -4 1 C-2 0 -2 0 0 0 Z " fill="#BB7D58" transform="translate(377,236)"/>
<path d="M0 0 C-0.99 0.495 -0.99 0.495 -2 1 C-2 1.99 -2 2.98 -2 4 C-2.99 4 -3.98 4 -5 4 C-5.33 2.68 -5.66 1.36 -6 0 C-3 -1 -3 -1 0 0 Z " fill="#87371F" transform="translate(398,297)"/>
</svg>
